<?xml version="1.0" encoding="UTF-8" standalone="no"?>
<svg
   xmlns:dc="http://purl.org/dc/elements/1.1/"
   xmlns:cc="http://creativecommons.org/ns#"
   xmlns:rdf="http://www.w3.org/1999/02/22-rdf-syntax-ns#"
   xmlns:svg="http://www.w3.org/2000/svg"
   xmlns="http://www.w3.org/2000/svg"
   xmlns:sodipodi="http://sodipodi.sourceforge.net/DTD/sodipodi-0.dtd"
   xmlns:inkscape="http://www.inkscape.org/namespaces/inkscape"
   version="1.1"
   id="svg2"
   xml:space="preserve"
   width="597.82666"
   height="527.54669"
   viewBox="0 0 597.82666 527.54669"
   sodipodi:docname="DMALLI_common.svg"
   inkscape:version="1.0.1 (3bc2e813f5, 2020-09-07)"><metadata
     id="metadata8"><rdf:RDF><cc:Work
         rdf:about=""><dc:format>image/svg+xml</dc:format><dc:type
           rdf:resource="http://purl.org/dc/dcmitype/StillImage" /><dc:title></dc:title></cc:Work></rdf:RDF></metadata><defs
     id="defs6" /><sodipodi:namedview
     pagecolor="#ffffff"
     bordercolor="#666666"
     borderopacity="1"
     objecttolerance="10"
     gridtolerance="10"
     guidetolerance="10"
     inkscape:pageopacity="0"
     inkscape:pageshadow="2"
     inkscape:window-width="786"
     inkscape:window-height="480"
     id="namedview4"
     showgrid="false"
     inkscape:zoom="1.6093362"
     inkscape:cx="298.91333"
     inkscape:cy="263.77335"
     inkscape:window-x="0"
     inkscape:window-y="0"
     inkscape:window-maximized="0"
     inkscape:current-layer="g10" /><g
     id="g10"
     inkscape:groupmode="layer"
     inkscape:label="ink_ext_XXXXXX"
     transform="matrix(1.3333333,0,0,-1.3333333,0,527.54667)"><g
       id="g12"
       transform="scale(0.1)"><path
         d="m 1582.11,3101.27 h 848.22 v 144.79 h -848.22 v -144.79 0 z"
         style="fill:none;stroke:#0e0f0f;stroke-width:5;stroke-linecap:round;stroke-linejoin:round;stroke-miterlimit:10;stroke-dasharray:none;stroke-opacity:1"
         id="path14" /><g
         id="g16"
         transform="scale(10)"><text
           transform="matrix(1,0,0,-0.99580765,161.634,314.298)"
           style="font-variant:normal;font-weight:normal;font-size:10.2595px;font-family:'Microsoft Sans Serif';-inkscape-font-specification:MicrosoftSansSerif;writing-mode:lr-tb;fill:#0e0f0f;fill-opacity:1;fill-rule:nonzero;stroke:none"
           id="text20"><tspan
             x="0 7.048831 12.816023 17.946886 21.783995 26.91375 32.68055 35.252815 42.300869 48.06768 53.198555 57.036846 62.803661 67.933418"
             y="0"
             sodipodi:role="line"
             id="tspan18">Source Address</tspan></text></g><path
         d="m 1582.11,2956.46 h 848.22 v 144.81 h -848.22 v -144.81 0 z"
         style="fill:none;stroke:#0e0f0f;stroke-width:5;stroke-linecap:round;stroke-linejoin:round;stroke-miterlimit:10;stroke-dasharray:none;stroke-opacity:1"
         id="path22" /><g
         id="g24"
         transform="scale(10)"><text
           transform="matrix(1,0,0,-0.99580765,161.634,299.821)"
           style="font-variant:normal;font-weight:normal;font-size:10.2595px;font-family:'Microsoft Sans Serif';-inkscape-font-specification:MicrosoftSansSerif;writing-mode:lr-tb;fill:#0e0f0f;fill-opacity:1;fill-rule:nonzero;stroke:none"
           id="text28"><tspan
             x="0 7.6859436 12.817978 17.947735 21.14657 23.717667 30.765717 36.532906 42.30088 45.511829 51.279812 56.408714"
             y="0"
             sodipodi:role="line"
             id="tspan26">Dest Address</tspan></text></g><path
         d="m 1582.11,2811.66 h 848.22 v 144.8 h -848.22 v -144.8 0 z"
         style="fill:none;stroke:#0e0f0f;stroke-width:5;stroke-linecap:round;stroke-linejoin:round;stroke-miterlimit:10;stroke-dasharray:none;stroke-opacity:1"
         id="path30" /><g
         id="g32"
         transform="scale(10)"><text
           transform="matrix(1,0,0,-0.99580765,161.634,285.345)"
           style="font-variant:normal;font-weight:normal;font-size:10.2595px;font-family:'Microsoft Sans Serif';-inkscape-font-specification:MicrosoftSansSerif;writing-mode:lr-tb;fill:#0e0f0f;fill-opacity:1;fill-rule:nonzero;stroke:none"
           id="text36"><tspan
             x="0 7.6859436 12.817978 17.947735 21.14657 23.717667 29.484858 35.252831"
             y="0"
             sodipodi:role="line"
             id="tspan34">Next LLI</tspan></text></g><path
         d="m 1582.11,2666.86 h 848.22 v 144.8 h -848.22 v -144.8 0 z"
         style="fill:none;stroke:#0e0f0f;stroke-width:5;stroke-linecap:round;stroke-linejoin:round;stroke-miterlimit:10;stroke-dasharray:none;stroke-opacity:1"
         id="path38" /><g
         id="g40"
         transform="scale(10)"><text
           transform="matrix(1,0,0,-0.99580765,161.634,270.861)"
           style="font-variant:normal;font-weight:normal;font-size:10.2595px;font-family:'Microsoft Sans Serif';-inkscape-font-specification:MicrosoftSansSerif;writing-mode:lr-tb;fill:#0e0f0f;fill-opacity:1;fill-rule:nonzero;stroke:none"
           id="text44"><tspan
             x="0 7.6859436 16.028137 23.075016 25.646893 32.707054 38.474247 44.242229 47.441055 50.653175 56.419991"
             y="0"
             sodipodi:role="line"
             id="tspan42">DMA Control</tspan></text></g><path
         d="m 2006.22,2425.52 h 848.23 v 144.81 h -848.23 v -144.81 0 z"
         style="fill:none;stroke:#0e0f0f;stroke-width:5;stroke-linecap:round;stroke-linejoin:round;stroke-miterlimit:10;stroke-dasharray:none;stroke-opacity:1"
         id="path46" /><g
         id="g48"
         transform="scale(10)"><text
           transform="matrix(1,0,0,-0.99580765,204.041,246.728)"
           style="font-variant:normal;font-weight:normal;font-size:10.2595px;font-family:'Microsoft Sans Serif';-inkscape-font-specification:MicrosoftSansSerif;writing-mode:lr-tb;fill:#0e0f0f;fill-opacity:1;fill-rule:nonzero;stroke:none"
           id="text52"><tspan
             x="0 7.0480504 12.814863 17.946911 21.784031 26.913786 32.680599 35.251694 42.299744 48.06773 53.198605 57.035725 62.802929 67.932686"
             y="0"
             sodipodi:role="line"
             id="tspan50">Source Address</tspan></text></g><path
         d="m 2006.22,2280.72 h 848.23 v 144.8 h -848.23 v -144.8 0 z"
         style="fill:none;stroke:#0e0f0f;stroke-width:5;stroke-linecap:round;stroke-linejoin:round;stroke-miterlimit:10;stroke-dasharray:none;stroke-opacity:1"
         id="path54" /><g
         id="g56"
         transform="scale(10)"><text
           transform="matrix(1,0,0,-0.99580765,204.041,232.251)"
           style="font-variant:normal;font-weight:normal;font-size:10.2595px;font-family:'Microsoft Sans Serif';-inkscape-font-specification:MicrosoftSansSerif;writing-mode:lr-tb;fill:#0e0f0f;fill-opacity:1;fill-rule:nonzero;stroke:none"
           id="text60"><tspan
             x="0 7.685956 12.817221 17.946978 21.146193 23.717287 30.764946 36.532932 42.300137 45.511082 51.279068 56.408825"
             y="0"
             sodipodi:role="line"
             id="tspan58">Dest Address</tspan></text></g><path
         d="m 2006.22,2135.92 h 848.23 v 144.8 h -848.23 v -144.8 0 z"
         style="fill:none;stroke:#0e0f0f;stroke-width:5;stroke-linecap:round;stroke-linejoin:round;stroke-miterlimit:10;stroke-dasharray:none;stroke-opacity:1"
         id="path62" /><g
         id="g64"
         transform="scale(10)"><text
           transform="matrix(1,0,0,-0.99580765,204.041,217.767)"
           style="font-variant:normal;font-weight:normal;font-size:10.2595px;font-family:'Microsoft Sans Serif';-inkscape-font-specification:MicrosoftSansSerif;writing-mode:lr-tb;fill:#0e0f0f;fill-opacity:1;fill-rule:nonzero;stroke:none"
           id="text68"><tspan
             x="0 7.685956 12.817221 17.946978 21.146193 23.717287 29.485271 35.252087"
             y="0"
             sodipodi:role="line"
             id="tspan66">Next LLI</tspan></text></g><path
         d="m 2006.22,1991.12 h 848.23 v 144.8 h -848.23 v -144.8 0 z"
         style="fill:none;stroke:#0e0f0f;stroke-width:5;stroke-linecap:round;stroke-linejoin:round;stroke-miterlimit:10;stroke-dasharray:none;stroke-opacity:1"
         id="path70" /><g
         id="g72"
         transform="scale(10)"><text
           transform="matrix(1,0,0,-0.99580765,204.041,203.283)"
           style="font-variant:normal;font-weight:normal;font-size:10.2595px;font-family:'Microsoft Sans Serif';-inkscape-font-specification:MicrosoftSansSerif;writing-mode:lr-tb;fill:#0e0f0f;fill-opacity:1;fill-rule:nonzero;stroke:none"
           id="text76"><tspan
             x="0 7.685956 16.026978 23.075027 25.646124 32.707081 38.473892 44.241096 47.439919 50.652042 56.419243"
             y="0"
             sodipodi:role="line"
             id="tspan74">DMA Control</tspan></text></g><path
         d="m 2284.92,1749.78 h 848.23 v 144.8 h -848.23 v -144.8 0 z"
         style="fill:none;stroke:#0e0f0f;stroke-width:5;stroke-linecap:round;stroke-linejoin:round;stroke-miterlimit:10;stroke-dasharray:none;stroke-opacity:1"
         id="path78" /><g
         id="g80"
         transform="scale(10)"><text
           transform="matrix(1,0,0,-0.99580765,231.908,179.15)"
           style="font-variant:normal;font-weight:normal;font-size:10.2595px;font-family:'Microsoft Sans Serif';-inkscape-font-specification:MicrosoftSansSerif;writing-mode:lr-tb;fill:#0e0f0f;fill-opacity:1;fill-rule:nonzero;stroke:none"
           id="text84"><tspan
             x="0 7.0476594 12.814863 17.946909 21.784031 26.913786 32.680988 35.252869 42.300137 48.068123 53.198997 57.036118 62.802929 67.932686"
             y="0"
             sodipodi:role="line"
             id="tspan82">Source Address</tspan></text></g><path
         d="m 2284.92,1604.99 h 848.23 v 144.79 h -848.23 v -144.79 0 z"
         style="fill:none;stroke:#0e0f0f;stroke-width:5;stroke-linecap:round;stroke-linejoin:round;stroke-miterlimit:10;stroke-dasharray:none;stroke-opacity:1"
         id="path86" /><g
         id="g88"
         transform="scale(10)"><text
           transform="matrix(1,0,0,-0.99580765,231.908,164.673)"
           style="font-variant:normal;font-weight:normal;font-size:10.2595px;font-family:'Microsoft Sans Serif';-inkscape-font-specification:MicrosoftSansSerif;writing-mode:lr-tb;fill:#0e0f0f;fill-opacity:1;fill-rule:nonzero;stroke:none"
           id="text92"><tspan
             x="0 7.685956 12.816832 17.946587 21.145411 23.716507 30.764557 36.532543 42.299744 45.510693 51.278679 56.408432"
             y="0"
             sodipodi:role="line"
             id="tspan90">Dest Address</tspan></text></g><path
         d="m 2284.92,1460.18 h 848.23 v 144.81 h -848.23 v -144.81 0 z"
         style="fill:none;stroke:#0e0f0f;stroke-width:5;stroke-linecap:round;stroke-linejoin:round;stroke-miterlimit:10;stroke-dasharray:none;stroke-opacity:1"
         id="path94" /><g
         id="g96"
         transform="scale(10)"><text
           transform="matrix(1,0,0,-0.99580765,231.908,150.189)"
           style="font-variant:normal;font-weight:normal;font-size:10.2595px;font-family:'Microsoft Sans Serif';-inkscape-font-specification:MicrosoftSansSerif;writing-mode:lr-tb;fill:#0e0f0f;fill-opacity:1;fill-rule:nonzero;stroke:none"
           id="text100"><tspan
             x="0 7.685956 12.816832 17.946587 21.145411 23.716507 29.484491 35.252476"
             y="0"
             sodipodi:role="line"
             id="tspan98">Next LLI</tspan></text></g><path
         d="m 2284.92,1315.39 h 848.23 v 144.79 h -848.23 v -144.79 0 z"
         style="fill:none;stroke:#0e0f0f;stroke-width:5;stroke-linecap:round;stroke-linejoin:round;stroke-miterlimit:10;stroke-dasharray:none;stroke-opacity:1"
         id="path102" /><g
         id="g104"
         transform="scale(10)"><text
           transform="matrix(1,0,0,-0.99580765,231.908,135.712)"
           style="font-variant:normal;font-weight:normal;font-size:10.2595px;font-family:'Microsoft Sans Serif';-inkscape-font-specification:MicrosoftSansSerif;writing-mode:lr-tb;fill:#0e0f0f;fill-opacity:1;fill-rule:nonzero;stroke:none"
           id="text108"><tspan
             x="0 7.685956 16.026978 23.075027 25.645733 32.706688 38.473892 44.240704 47.439919 50.652042 56.420025"
             y="0"
             sodipodi:role="line"
             id="tspan106">DMA Control</tspan></text></g><path
         d="m 2612.09,1074.05 h 848.24 v 144.79 h -848.24 v -144.79 0 z"
         style="fill:none;stroke:#0e0f0f;stroke-width:5;stroke-linecap:round;stroke-linejoin:round;stroke-miterlimit:10;stroke-dasharray:none;stroke-opacity:1"
         id="path110" /><g
         id="g112"
         transform="scale(10)"><text
           transform="matrix(1,0,0,-0.99580765,264.626,111.572)"
           style="font-variant:normal;font-weight:normal;font-size:10.2595px;font-family:'Microsoft Sans Serif';-inkscape-font-specification:MicrosoftSansSerif;writing-mode:lr-tb;fill:#0e0f0f;fill-opacity:1;fill-rule:nonzero;stroke:none"
           id="text116"><tspan
             x="0 7.0480504 12.816035 17.947691 21.784811 26.914568 32.68177 35.252476 42.300526 48.068512 53.199776 57.036507 62.803707 67.933464"
             y="0"
             sodipodi:role="line"
             id="tspan114">Source Address</tspan></text></g><path
         d="m 2612.09,929.238 h 848.24 v 144.812 h -848.24 v -144.812 0 z"
         style="fill:none;stroke:#0e0f0f;stroke-width:5;stroke-linecap:round;stroke-linejoin:round;stroke-miterlimit:10;stroke-dasharray:none;stroke-opacity:1"
         id="path118" /><g
         id="g120"
         transform="scale(10)"><text
           transform="matrix(1,0,0,-0.99580765,264.626,97.1031)"
           style="font-variant:normal;font-weight:normal;font-size:10.2595px;font-family:'Microsoft Sans Serif';-inkscape-font-specification:MicrosoftSansSerif;writing-mode:lr-tb;fill:#0e0f0f;fill-opacity:1;fill-rule:nonzero;stroke:none"
           id="text124"><tspan
             x="0 7.686738 12.818003 17.947758 21.146975 23.718069 30.766119 36.534103 42.300919 45.511864 51.27985 56.409607"
             y="0"
             sodipodi:role="line"
             id="tspan122">Dest Address</tspan></text></g><path
         d="m 2612.09,784.441 h 848.24 v 144.797 h -848.24 v -144.797 0 z"
         style="fill:none;stroke:#0e0f0f;stroke-width:5;stroke-linecap:round;stroke-linejoin:round;stroke-miterlimit:10;stroke-dasharray:none;stroke-opacity:1"
         id="path126" /><g
         id="g128"
         transform="scale(10)"><text
           transform="matrix(1,0,0,-0.99580765,264.626,82.6191)"
           style="font-variant:normal;font-weight:normal;font-size:10.2595px;font-family:'Microsoft Sans Serif';-inkscape-font-specification:MicrosoftSansSerif;writing-mode:lr-tb;fill:#0e0f0f;fill-opacity:1;fill-rule:nonzero;stroke:none"
           id="text132"><tspan
             x="0 7.686738 12.818003 17.947758 21.146975 23.718069 29.486053 35.252865"
             y="0"
             sodipodi:role="line"
             id="tspan130">Next LLI</tspan></text></g><path
         d="m 2612.09,639.641 h 848.24 v 144.8 h -848.24 v -144.8 0 z"
         style="fill:none;stroke:#0e0f0f;stroke-width:5;stroke-linecap:round;stroke-linejoin:round;stroke-miterlimit:10;stroke-dasharray:none;stroke-opacity:1"
         id="path134" /><g
         id="g136"
         transform="scale(10)"><text
           transform="matrix(1,0,0,-0.99580765,264.626,68.134)"
           style="font-variant:normal;font-weight:normal;font-size:10.2595px;font-family:'Microsoft Sans Serif';-inkscape-font-specification:MicrosoftSansSerif;writing-mode:lr-tb;fill:#0e0f0f;fill-opacity:1;fill-rule:nonzero;stroke:none"
           id="text140"><tspan
             x="0 7.686738 16.02776 23.075809 25.646906 32.707081 38.475063 44.241879 47.441093 50.652821 56.420025"
             y="0"
             sodipodi:role="line"
             id="tspan138">DMA Control</tspan></text></g><path
         d="m 2430.33,2884.06 h 169.65 v -271.59"
         style="fill:none;stroke:#0e0f0f;stroke-width:5;stroke-linecap:round;stroke-linejoin:round;stroke-miterlimit:10;stroke-dasharray:none;stroke-opacity:1"
         id="path142" /><path
         d="m 2599.98,2570.33 -27.96,55.68 c 17.6,-8.77 38.32,-8.77 55.91,0 l -27.95,-55.68 v 0 0"
         style="fill:#0e0f0f;fill-opacity:1;fill-rule:evenodd;stroke:none"
         id="path144" /><path
         d="m 2856.87,2208.32 h 169.65 v -271.59"
         style="fill:none;stroke:#0e0f0f;stroke-width:5;stroke-linecap:round;stroke-linejoin:round;stroke-miterlimit:10;stroke-dasharray:none;stroke-opacity:1"
         id="path146" /><path
         d="m 3026.52,1894.58 -27.96,55.69 c 17.6,-8.77 38.32,-8.77 55.92,0 l -27.96,-55.69 v 0 0"
         style="fill:#0e0f0f;fill-opacity:1;fill-rule:evenodd;stroke:none"
         id="path148" /><path
         d="M 3133.15,1532.58 H 3302.8 V 1260.99"
         style="fill:none;stroke:#0e0f0f;stroke-width:5;stroke-linecap:round;stroke-linejoin:round;stroke-miterlimit:10;stroke-dasharray:none;stroke-opacity:1"
         id="path150" /><path
         d="m 3302.8,1218.84 -27.96,55.69 c 17.59,-8.76 38.32,-8.76 55.92,0 l -27.96,-55.69 v 0 0"
         style="fill:#0e0f0f;fill-opacity:1;fill-rule:evenodd;stroke:none"
         id="path152" /><path
         d="m 1218.58,3473.99 h 848.23 v 170.28 h -848.23 v -170.28 0 z"
         style="fill:none;stroke:#0e0f0f;stroke-width:5;stroke-linecap:round;stroke-linejoin:round;stroke-miterlimit:10;stroke-dasharray:none;stroke-opacity:1"
         id="path154" /><g
         id="g156"
         transform="scale(10)"><text
           transform="matrix(1,0,0,-0.99580765,152.869,352.845)"
           style="font-variant:normal;font-weight:normal;font-size:10.2595px;font-family:'Microsoft Sans Serif';-inkscape-font-specification:MicrosoftSansSerif;writing-mode:lr-tb;fill:#0e0f0f;fill-opacity:1;fill-rule:nonzero;stroke:none"
           id="text160"><tspan
             x="0 2.5730548 10.258999 16.026972"
             y="0"
             sodipodi:role="line"
             id="tspan158">IDLE</tspan></text></g><path
         d="m 2066.81,3559.8 h 169.64 v -271.59"
         style="fill:none;stroke:#0e0f0f;stroke-width:5;stroke-linecap:round;stroke-linejoin:round;stroke-miterlimit:10;stroke-dasharray:none;stroke-opacity:1"
         id="path162" /><path
         d="m 2236.45,3246.06 -27.96,55.68 c 17.61,-8.76 38.32,-8.76 55.92,0 l -27.96,-55.68 v 0 0"
         style="fill:#0e0f0f;fill-opacity:1;fill-rule:evenodd;stroke:none"
         id="path164" /><g
         id="g166"
         transform="scale(10)"><text
           transform="matrix(1,0,0,-0.99580765,227.064,344.4)"
           style="font-variant:normal;font-weight:normal;font-size:10.2595px;font-family:'Microsoft Sans Serif';-inkscape-font-specification:MicrosoftSansSerif;writing-mode:lr-tb;fill:#0e0f0f;fill-opacity:1;fill-rule:nonzero;stroke:none"
           id="text182"><tspan
             x="0 5.1297555 10.896568 16.663773 22.431757 28.19857 33.330616 35.885704 38.456799 44.224785 49.990814 55.758801 61.525612 64.080704"
             y="0"
             sodipodi:role="line"
             id="tspan168">channel enable</tspan><tspan
             x="36.352001 38.925041 44.691856 47.891853 54.302013 61.36219 68.409851 74.178223 79.945038 85.07708 87.632172 93.445076"
             y="61.704788"
             sodipodi:role="line"
             id="tspan170">IntTCEnable=</tspan><tspan
             x="36.352001"
             y="74.01339"
             id="tspan172">0</tspan><tspan
             x="79.977089 82.550133 88.316948 91.516945 97.927109 104.98728 112.03494 117.80331 123.57013 128.70218 131.25726 137.07018"
             y="129.55916"
             sodipodi:role="line"
             id="tspan174">IntTCEnable=</tspan><tspan
             x="79.977089"
             y="141.8756"
             id="tspan176">0</tspan><tspan
             x="107.85216 110.42519 116.19201 119.39201 125.80217 132.86234 139.91 145.67838 151.44519 156.57724 159.13232 164.93742"
             y="197.42175"
             sodipodi:role="line"
             id="tspan178">IntTCEnable=</tspan><tspan
             x="107.85216"
             y="209.73117"
             id="tspan180">0</tspan></text></g><path
         d="M 3036.21,639.641 V 350.031 H 1097.41 V 3547.73 h 78.85"
         style="fill:none;stroke:#0e0f0f;stroke-width:5;stroke-linecap:round;stroke-linejoin:round;stroke-miterlimit:10;stroke-dasharray:none;stroke-opacity:1"
         id="path184" /><path
         d="m 1218.58,3547.73 -55.92,-27.84 c 8.81,17.53 8.81,38.16 0,55.68 l 55.92,-27.84 v 0 0"
         style="fill:#0e0f0f;fill-opacity:1;fill-rule:evenodd;stroke:none"
         id="path186" /><g
         id="g188"
         transform="scale(10)"><text
           transform="matrix(1,0,0,-0.99580765,43.9781,192.454)"
           style="font-variant:normal;font-weight:normal;font-size:10.2595px;font-family:'Microsoft Sans Serif';-inkscape-font-specification:MicrosoftSansSerif;writing-mode:lr-tb;fill:#0e0f0f;fill-opacity:1;fill-rule:nonzero;stroke:none"
           id="text194"><tspan
             x="0 2.5730517 8.3406401 11.539861 17.950415 25.010576 32.059025 37.826614 43.593811 48.725067 51.280151 57.077816"
             y="0"
             sodipodi:role="line"
             id="tspan190">IntTCEnable=</tspan><tspan
             x="0"
             y="12.308602"
             id="tspan192">1</tspan></text></g><path
         d="M 4481.24,2.5 H 2.5 v 3951.61 h 4478.74 z"
         style="fill:none;stroke:#231f20;stroke-width:5;stroke-linecap:butt;stroke-linejoin:miter;stroke-miterlimit:10;stroke-dasharray:none;stroke-opacity:1"
         id="path196" /></g></g></svg>
